# xmcd
#
# Track frame offsets:
#	150
#	11712
#	23950
#	34130
#	48762
#	62995
#	76432
#	89875
#	102020
#	112370
#	123430
#	135310
#
# Disc length: 1937 seconds
#
# Revision: 1
# Processed by: cddbd v1.5.2PL0 Copyright (c) Steve Scherf et al.
# Submitted via: audiograbber 1.83.01
#
DISCID=a3078f0c
DTITLE=Various Artist - Ultimate Country Classics Vol3. [CD2]
DYEAR=1900
DGENRE=Country
TTITLE0=Freddy Fender - Before The Next Teardrop Falls
TTITLE1=Donna Fargo - Funny Face
TTITLE2=Billy Crash Craddock - Rub It In
TTITLE3=Jeanne Pruett - Satin Sheets
TTITLE4=Jerry Lee Lewis - Me And Bobby Mcgee
TTITLE5=Loretta Lynn - Coal Miner`s Daughter
TTITLE6=Faron Young - It`s Four In The Morning
TTITLE7=Bill Anderson - World Of Make Believe
TTITLE8=Barbara Mandrell - Sleeping Single In A Double Bed
TTITLE9=Don Williams - It Must Be Love
TTITLE10=Conway Twitty and Loretta Lynn - After The Fire Is Gone
TTITLE11=Statler Brothers - Do You Know You Are My Sunshine
EXTD=
EXTT0=
EXTT1=
EXTT2=
EXTT3=
EXTT4=
EXTT5=
EXTT6=
EXTT7=
EXTT8=
EXTT9=
EXTT10=
EXTT11=
PLAYORDER=
